<svg width="189" height="38" viewBox="0 0 189 38" fill="none" xmlns="http://www.w3.org/2000/svg"><path d="M5.313 16.422c-2.478 0-4.179-1.113-5.313-3.297l2.205-1.617c.735 1.323 1.827 2.184 3.108 2.184 1.197 0 1.911-.798 1.911-1.953s-.546-1.87-2.54-2.73C2.456 8.064.776 6.825.776 4.368.777 1.89 2.772 0 5.523 0c2.163 0 3.717 1.092 4.578 2.352l-2.016 1.91c-.65-.902-1.47-1.532-2.562-1.532-1.008 0-1.554.693-1.554 1.554 0 .86.588 1.449 2.604 2.31 2.583 1.092 3.843 2.52 3.843 5.103 0 2.856-2.205 4.725-5.103 4.725zm0-.462c2.667 0 4.62-1.638 4.62-4.242 0-2.352-1.092-3.654-3.57-4.725-1.995-.861-2.877-1.575-2.877-2.667 0-1.24.903-2.058 2.037-2.058 1.281 0 2.121.714 2.646 1.344l1.323-1.26c-.65-.903-1.974-1.89-3.969-1.89-2.394 0-4.263 1.49-4.263 3.864 0 2.247 1.533 3.318 3.654 4.242 2.1.903 2.793 1.785 2.793 3.15 0 1.323-.924 2.436-2.394 2.436-1.512 0-2.667-1.008-3.255-1.953L.63 13.23c.777 1.554 2.373 2.73 4.683 2.73zm0-.693c2.184 0 3.738-1.386 3.738-3.55 0-2.057-1.05-3.17-3.339-4.2-1.932-.881-3.108-1.532-3.108-3.191 0-1.764 1.302-2.772 2.92-2.772 1.301 0 2.141.546 2.75 1.197l.357-.336c-.609-.693-1.638-1.323-3.108-1.323-1.91 0-3.423 1.323-3.423 3.234 0 1.89 1.344 2.73 3.234 3.57 2.352 1.029 3.213 1.953 3.213 3.822s-1.26 3.087-3.234 3.087c-1.7 0-2.814-.84-3.402-1.68l-.399.294c.651.924 1.87 1.848 3.801 1.848zm9.567.86h-3.17L14.69.295h1.848l4.41 10.269L25.485.293h1.848l2.73 15.835h-3.192l-1.323-9.303-4.01 9.303h-1.24l-3.864-9.303-1.554 9.303zM15.09.736l-2.772 14.93h2.163L16.308 5.46l4.221 10.164h.777l4.41-10.101 1.554 10.143h2.226L26.956.756h-1.198L20.95 11.592 16.245.735H15.09zm.61 1.07l-2.458 13.273h.504l2.184-12.18 4.872 11.36h.273l4.998-11.213 1.974 12.033h.504L26.346 1.89h-.23l-5.167 11.55-4.977-11.634H15.7zm18.218 14.323h-3.38L37.55.294h2.058l6.825 15.834H42.99l-1.343-3.318h-6.364l-1.364 3.318zM37.867.777l-6.573 14.868h2.247l1.407-3.318h7.056l1.364 3.318h2.31L39.295.777h-1.428zm.462.735l-5.986 13.566h.546l1.554-3.507h8.149l1.47 3.507h.546L38.852 1.512h-.525zm4.053 9.576h-7.77l3.99-9.114 3.78 9.114zm-1.072-.672h-5.607l2.856-6.7 2.752 6.7zm-2.75-5.65l-2.163 5.167h4.22L38.56 4.767zm12.449 11.362h-3.15V.294h3.59c3.655 0 6.259 1.554 6.259 4.767 0 2.352-1.596 3.8-3.192 4.389l4.704 6.678h-3.717l-4.158-6.153h-.336v6.153zM48.342.777v14.868h2.184V9.597h1.113l4.158 6.048h2.54l-4.535-6.426c1.89-.441 3.423-1.932 3.423-4.158 0-2.856-2.352-4.284-5.775-4.284h-3.108zm.84.714v13.587h.504V8.757h2.268l4.43 6.32h.61l-4.515-6.383c2.12-.231 3.885-1.596 3.885-3.654 0-2.352-1.995-3.55-4.914-3.55h-2.268zm2.436 6.804h-1.932v-6.3h1.848c2.436 0 4.326.924 4.326 3.045 0 1.869-1.743 3.255-4.242 3.255zm0-.651h-1.092V2.709h1.008c2.184 0 3.465.882 3.465 2.415 0 1.49-1.386 2.52-3.381 2.52zm-.61-4.452v3.99h.484c1.932 0 3.045-.735 3.045-2.058 0-1.302-1.03-1.932-2.961-1.932h-.567zm14.567 12.936h-3.15V3.213h-3.549V.293h10.248v2.92h-3.549v12.915zm-2.667-13.42v12.937h2.184V2.709h3.55V.777h-9.283v1.932h3.55zm.84-.776v13.146h.504V1.932h3.801V1.47h-8.106v.462h3.801zm15.734 14.196h-3.15V.294h3.15v15.834zM76.815.756v14.91H79V.756h-2.184zm.84.588v13.734h.504V1.344h-.504zm7.996 14.784h-3.13V.294h2.185l9.114 10.08-.021-10.08h3.129v15.834h-2.163L85.609 5.922l.042 10.206zM83.005.777v14.868h2.184V4.767l9.807 10.878h1.449V.777H94.26v10.752L84.433.777h-1.428zm.84.945v13.356h.504V2.604l10.899 12.033h.357V1.344H95.1v12.39L84.2 1.722h-.356zM106.5 16.128h-1.659L98.332.294h3.402l3.948 9.996 3.99-9.996h3.423l-6.594 15.834zM99.067.777l6.111 14.868h.987L112.36.777h-2.373l-4.305 10.647L101.419.777h-2.352zm1.05.567l5.397 13.02h.336l5.397-13.02h-.567l-4.998 12.138-4.998-12.138h-.567zm23.608 14.784h-9.24V.294h9.198v2.898h-6.048v3.003h5.817v2.898h-5.817v4.137h6.09v2.898zM114.968.756v14.91h8.274v-1.974h-6.09V8.63h5.817V6.657h-5.817V2.73h6.069V.756h-8.253zm.84.756V14.91h6.846v-.462h-6.342V7.854h5.985v-.462h-5.985V1.974h6.3v-.462h-6.804zm15.158 14.91c-2.478 0-4.179-1.113-5.313-3.297l2.205-1.617c.735 1.323 1.827 2.184 3.108 2.184 1.197 0 1.911-.798 1.911-1.953s-.546-1.87-2.541-2.73c-2.226-.945-3.906-2.184-3.906-4.641 0-2.478 1.995-4.368 4.746-4.368 2.163 0 3.717 1.092 4.578 2.352l-2.016 1.91c-.651-.902-1.47-1.532-2.562-1.532-1.008 0-1.554.693-1.554 1.554 0 .86.588 1.449 2.604 2.31 2.583 1.092 3.843 2.52 3.843 5.103 0 2.856-2.205 4.725-5.103 4.725zm0-.462c2.667 0 4.62-1.638 4.62-4.242 0-2.352-1.092-3.654-3.57-4.725-1.995-.861-2.877-1.575-2.877-2.667 0-1.24.903-2.058 2.037-2.058 1.281 0 2.121.714 2.646 1.344l1.323-1.26c-.651-.903-1.974-1.89-3.969-1.89-2.394 0-4.263 1.49-4.263 3.864 0 2.247 1.533 3.318 3.654 4.242 2.1.903 2.793 1.785 2.793 3.15 0 1.323-.924 2.436-2.394 2.436-1.512 0-2.667-1.008-3.255-1.953l-1.428 1.029c.777 1.554 2.373 2.73 4.683 2.73zm0-.693c2.184 0 3.738-1.386 3.738-3.55 0-2.057-1.05-3.17-3.339-4.2-1.932-.881-3.108-1.532-3.108-3.191 0-1.764 1.302-2.772 2.919-2.772 1.302 0 2.142.546 2.751 1.197l.357-.336c-.609-.693-1.638-1.323-3.108-1.323-1.911 0-3.423 1.323-3.423 3.234 0 1.89 1.344 2.73 3.234 3.57 2.352 1.029 3.213 1.953 3.213 3.822s-1.26 3.087-3.234 3.087c-1.701 0-2.814-.84-3.402-1.68l-.399.294c.651.924 1.869 1.848 3.801 1.848zm12.286.86h-3.15V3.214h-3.549V.293h10.248v2.92h-3.549v12.915zM140.585 2.71v12.936h2.184V2.709h3.549V.777h-9.282v1.932h3.549zm.84-.777v13.146h.504V1.932h3.801V1.47h-8.106v.462h3.801zm14.247 14.49c-4.494 0-8.379-3.423-8.379-8.253 0-4.557 3.801-8.17 8.379-8.17 4.578 0 8.379 3.57 8.379 8.233 0 4.662-3.801 8.19-8.379 8.19zm0-.462c4.305 0 7.896-3.318 7.896-7.75 0-4.43-3.591-7.748-7.896-7.748s-7.896 3.318-7.896 7.749c0 4.43 3.675 7.749 7.896 7.749zm0-.756c3.864 0 7.056-3.045 7.056-6.993 0-3.948-3.192-6.993-7.056-6.993s-7.056 3.045-7.056 6.993c0 3.948 3.192 6.993 7.056 6.993zm0-.483c-3.528 0-6.51-2.73-6.51-6.51s2.835-6.51 6.51-6.51 6.51 2.73 6.51 6.51-2.982 6.51-6.51 6.51zm0-.756c-3.192 0-5.67-2.436-5.67-5.754 0-3.36 2.478-5.754 5.67-5.754 3.192 0 5.67 2.394 5.67 5.754 0 3.318-2.478 5.754-5.67 5.754zm0-.462c2.919 0 5.187-2.205 5.187-5.292 0-3.13-2.268-5.292-5.187-5.292-2.835 0-5.187 2.163-5.187 5.27 0 3.109 2.352 5.314 5.187 5.314zm13.996 2.625h-3.15V.294h3.591c3.654 0 6.258 1.554 6.258 4.767 0 2.352-1.596 3.8-3.192 4.389l4.704 6.678h-3.717l-4.158-6.153h-.336v6.153zM167.001.777v14.868h2.184V9.597h1.113l4.158 6.048h2.541l-4.536-6.426c1.89-.441 3.423-1.932 3.423-4.158 0-2.856-2.352-4.284-5.775-4.284h-3.108zm.84.714v13.587h.504V8.757h2.268l4.431 6.32h.609l-4.515-6.383c2.121-.231 3.885-1.596 3.885-3.654 0-2.352-1.995-3.55-4.914-3.55h-2.268zm2.436 6.804h-1.932v-6.3h1.848c2.436 0 4.326.924 4.326 3.045 0 1.869-1.743 3.255-4.242 3.255zm0-.651h-1.092V2.709h1.008c2.184 0 3.465.882 3.465 2.415 0 1.49-1.386 2.52-3.381 2.52zm-.609-4.452v3.99h.483c1.932 0 3.045-.735 3.045-2.058 0-1.302-1.029-1.932-2.961-1.932h-.567zm13.823 13.23c-2.478 0-4.179-1.113-5.313-3.297l2.205-1.617c.735 1.323 1.827 2.184 3.108 2.184 1.197 0 1.911-.798 1.911-1.953s-.546-1.87-2.541-2.73c-2.226-.945-3.906-2.184-3.906-4.641 0-2.478 1.995-4.368 4.746-4.368 2.163 0 3.717 1.092 4.578 2.352l-2.016 1.91c-.651-.902-1.47-1.532-2.562-1.532-1.008 0-1.554.693-1.554 1.554 0 .86.588 1.449 2.604 2.31 2.583 1.092 3.843 2.52 3.843 5.103 0 2.856-2.205 4.725-5.103 4.725zm0-.462c2.667 0 4.62-1.638 4.62-4.242 0-2.352-1.092-3.654-3.57-4.725-1.995-.861-2.877-1.575-2.877-2.667 0-1.24.903-2.058 2.037-2.058 1.281 0 2.121.714 2.646 1.344l1.323-1.26c-.651-.903-1.974-1.89-3.969-1.89-2.394 0-4.263 1.49-4.263 3.864 0 2.247 1.533 3.318 3.654 4.242 2.1.903 2.793 1.785 2.793 3.15 0 1.323-.924 2.436-2.394 2.436-1.512 0-2.667-1.008-3.255-1.953l-1.428 1.029c.777 1.554 2.373 2.73 4.683 2.73zm0-.693c2.184 0 3.738-1.386 3.738-3.55 0-2.057-1.05-3.17-3.339-4.2-1.932-.881-3.108-1.532-3.108-3.191 0-1.764 1.302-2.772 2.919-2.772 1.302 0 2.142.546 2.751 1.197l.357-.336c-.609-.693-1.638-1.323-3.108-1.323-1.911 0-3.423 1.323-3.423 3.234 0 1.89 1.344 2.73 3.234 3.57 2.352 1.029 3.213 1.953 3.213 3.822s-1.26 3.087-3.234 3.087c-1.701 0-2.814-.84-3.402-1.68l-.399.294c.651.924 1.869 1.848 3.801 1.848zM4.242 37.127h-3.15V21.295h3.15v5.985h6.048v-5.985h3.13v15.834h-3.13v-6.951H4.242v6.95zm-2.667-15.35v14.868H3.76v-6.951h7.014v6.95h2.163V21.778h-2.163v5.985H3.76v-5.985H1.575zm.84.567v13.734h.504V29h8.694v7.077h.504V22.344h-.504v6.153H2.92v-6.153h-.504zm21.866 15.078c-4.494 0-8.379-3.423-8.379-8.253 0-4.557 3.801-8.17 8.379-8.17 4.578 0 8.379 3.57 8.379 8.233 0 4.662-3.801 8.19-8.379 8.19zm0-.462c4.305 0 7.896-3.318 7.896-7.75 0-4.43-3.591-7.748-7.896-7.748s-7.896 3.318-7.896 7.749c0 4.43 3.675 7.749 7.896 7.749zm0-.756c3.864 0 7.056-3.045 7.056-6.993 0-3.948-3.192-6.993-7.056-6.993s-7.056 3.045-7.056 6.993c0 3.948 3.192 6.993 7.056 6.993zm0-.483c-3.528 0-6.51-2.73-6.51-6.51s2.835-6.51 6.51-6.51 6.51 2.73 6.51 6.51-2.982 6.51-6.51 6.51zm0-.756c-3.192 0-5.67-2.436-5.67-5.754 0-3.36 2.478-5.754 5.67-5.754 3.192 0 5.67 2.394 5.67 5.754 0 3.318-2.478 5.754-5.67 5.754zm0-.462c2.919 0 5.187-2.205 5.187-5.292 0-3.13-2.268-5.292-5.187-5.292-2.835 0-5.187 2.163-5.187 5.27 0 3.109 2.352 5.314 5.187 5.314zm18.7 2.625h-7.854V21.294h3.15V34.23h4.704v2.898zm-7.37-15.372v14.91h6.887v-1.974h-4.704V21.756H35.61zm.84.588V35.91h5.417v-.462h-4.914V22.344h-.504zm11.923 14.784h-3.612V21.294h3.948c5.418 0 9.009 2.856 9.009 7.875 0 5.103-3.717 7.959-9.345 7.959zm-3.13-15.372v14.91h3.172c5.292 0 8.82-2.625 8.82-7.497 0-4.767-3.402-7.413-8.421-7.413h-3.57zm.883.714v13.46h2.079c4.85 0 8.169-2.372 8.169-6.761 0-4.62-3.234-6.7-7.77-6.7h-2.478zm1.995 12.999H46.63V22.932h2.037c4.263 0 7.203 1.827 7.203 6.237 0 4.2-3.171 6.3-7.75 6.3zm.294-.714h-.945V23.73h1.407c3.969 0 6.132 1.848 6.132 5.439 0 3.612-2.71 5.586-6.594 5.586zm-.462-10.563v10.1h.483c3.717 0 6.09-1.784 6.09-5.144 0-3.213-1.806-4.956-5.67-4.956h-.903zm26.162 13.23c-4.557 0-8.211-3.528-8.211-8.148 0-4.81 3.738-8.274 8.442-8.274 2.835 0 4.872 1.029 6.468 3.255l-2.436 1.764c-1.05-1.47-2.31-2.121-4.011-2.121-3.045 0-5.271 2.226-5.271 5.376 0 3.066 2.037 5.27 5.019 5.27 2.772 0 4.01-1.406 4.368-3.128v-.021h-3.76v-2.793h7.099v.609c0 4.977-2.982 8.21-7.707 8.21zm0-.462c4.41 0 7.224-2.982 7.224-7.497v-.4h-6.132v1.87h3.822v.02c-.21 2.374-1.911 4.054-4.914 4.054-3.234 0-5.502-2.5-5.502-5.754 0-3.423 2.478-5.817 5.733-5.817 1.89 0 3.255.798 4.158 1.974l1.68-1.24c-1.323-1.742-3.192-2.708-5.838-2.708-4.39 0-7.96 3.192-7.96 7.79 0 4.39 3.298 7.708 7.729 7.708zm0-.714c3.885 0 6.342-2.646 6.342-6.426v-.063H75.88v.462h4.095v.02c-.21 3.277-2.31 5.545-5.86 5.545-3.716 0-6.383-2.772-6.383-6.531 0-3.843 2.96-6.573 6.615-6.573 2.079 0 3.318.567 4.473 1.785l.378-.273c-1.197-1.302-2.562-1.974-4.851-1.974-3.906 0-7.12 2.94-7.12 7.035 0 3.969 2.94 6.993 6.889 6.993zM92.1 37.422c-4.494 0-8.379-3.423-8.379-8.253 0-4.557 3.801-8.17 8.38-8.17 4.577 0 8.378 3.57 8.378 8.233 0 4.662-3.8 8.19-8.379 8.19zm0-.462c4.305 0 7.896-3.318 7.896-7.75 0-4.43-3.59-7.748-7.896-7.748-4.305 0-7.896 3.318-7.896 7.749 0 4.43 3.675 7.749 7.896 7.749zm0-.756c3.864 0 7.056-3.045 7.056-6.993 0-3.948-3.192-6.993-7.056-6.993s-7.056 3.045-7.056 6.993c0 3.948 3.192 6.993 7.056 6.993zm0-.483c-3.528 0-6.51-2.73-6.51-6.51s2.835-6.51 6.51-6.51 6.51 2.73 6.51 6.51-2.982 6.51-6.51 6.51zm0-.756c-3.192 0-5.67-2.436-5.67-5.754 0-3.36 2.478-5.754 5.67-5.754 3.192 0 5.67 2.394 5.67 5.754 0 3.318-2.478 5.754-5.67 5.754zm0-.462c2.92 0 5.187-2.205 5.187-5.292 0-3.13-2.268-5.292-5.187-5.292-2.835 0-5.187 2.163-5.187 5.27 0 3.109 2.352 5.314 5.187 5.314zm18.7 2.625h-7.854V21.294h3.15V34.23h4.704v2.898zm-7.371-15.372v14.91h6.888v-1.974h-4.704V21.756h-2.184zm.84.588V35.91h5.418v-.462h-4.914V22.344h-.504zm11.924 14.784h-3.612V21.294h3.948c5.418 0 9.009 2.856 9.009 7.875 0 5.103-3.717 7.959-9.345 7.959zm-3.129-15.372v14.91h3.171c5.292 0 8.82-2.625 8.82-7.497 0-4.767-3.402-7.413-8.421-7.413h-3.57zm.882.714v13.46h2.079c4.851 0 8.169-2.372 8.169-6.761 0-4.62-3.234-6.7-7.77-6.7h-2.478zm1.995 12.999h-1.491V22.932h2.037c4.263 0 7.203 1.827 7.203 6.237 0 4.2-3.171 6.3-7.749 6.3zm.294-.714h-.945V23.73h1.407c3.969 0 6.132 1.848 6.132 5.439 0 3.612-2.709 5.586-6.594 5.586zm-.462-10.563v10.1h.483c3.717 0 6.09-1.784 6.09-5.144 0-3.213-1.806-4.956-5.67-4.956h-.903zm13.05 13.209c-.966 0-1.806-.693-1.806-1.701s.84-1.722 1.806-1.722c.945 0 1.806.714 1.806 1.722s-.861 1.7-1.806 1.7zm0-.441c.693 0 1.323-.504 1.323-1.26 0-.693-.63-1.281-1.323-1.281-.756 0-1.323.588-1.323 1.28 0 .757.567 1.26 1.323 1.26zm0-.63a.65.65 0 00.63-.651.646.646 0 00-.63-.63.65.65 0 00-.651.63c0 .357.294.65.651.65z" fill="#D1A14F"/></svg>