<svg width="170" height="17" viewBox="0 0 170 17" fill="none" xmlns="http://www.w3.org/2000/svg"><path d="M3.15 16.128H0V.294h3.801c3.696 0 6.237 1.533 6.237 4.893 0 3.15-2.478 4.956-6.048 4.956h-.84v5.985zM.483.756v14.91h2.184V9.68h1.197c3.843 0 5.691-1.89 5.691-4.473 0-2.982-1.953-4.452-5.817-4.452H.483zm.84.693v13.629h.504V8.904h2.037c3.276 0 4.81-1.575 4.81-3.76 0-2.246-1.639-3.695-4.936-3.695H1.323zm2.541 6.95H1.827V1.954h1.911c2.604 0 4.431.86 4.431 3.192C8.17 7.392 6.49 8.4 3.864 8.4zm0-.713H2.667V2.73h1.071c2.268 0 3.55.714 3.55 2.457 0 1.68-1.303 2.499-3.424 2.499zM3.15 3.192v4.032h.861c1.764 0 2.793-.651 2.793-2.037S5.734 3.192 3.78 3.192h-.63zm18.165 12.936h-9.24V.294h9.198v2.898h-6.047v3.003h5.816v2.898h-5.817v4.137h6.09v2.898zM12.559.756v14.91h8.274v-1.974h-6.09V8.63h5.817V6.657h-5.817V2.73h6.07V.756h-8.254zm.84.756V14.91h6.846v-.462h-6.341V7.854h5.984v-.462h-5.985V1.974h6.3v-.462h-6.804zm12.743 14.616h-3.38L29.773.294h2.058l6.825 15.834h-3.444L33.87 12.81h-6.363l-1.365 3.318zM30.09.777l-6.573 14.868h2.247l1.407-3.318h7.056l1.365 3.318h2.31L31.517.777H30.09zm.462.735l-5.985 13.566h.546l1.554-3.507h8.148l1.47 3.507h.546L31.076 1.512h-.525zm4.053 9.576h-7.77l3.99-9.114 3.78 9.114zm-1.07-.672h-5.608l2.856-6.7 2.751 6.7zm-2.752-5.65L28.62 9.934h4.221l-2.058-5.166zm16.223 11.656c-4.578 0-8.127-3.57-8.127-8.127 0-4.746 3.57-8.295 8.233-8.295 1.742 0 3.233.42 4.158.86v3.466c-1.386-.924-2.752-1.428-4.158-1.428-2.898 0-5.04 2.268-5.04 5.355 0 2.96 2.1 5.25 5.04 5.25 1.596 0 3.066-.567 4.2-1.596v3.465c-1.135.65-2.541 1.05-4.306 1.05zm0-.462c1.554 0 2.814-.294 3.822-.903v-2.268c-.63.504-1.974 1.176-3.716 1.176-3.192 0-5.523-2.436-5.523-5.712 0-3.381 2.414-5.838 5.502-5.838 1.532 0 2.877.546 3.695 1.07v-2.31c-.734-.377-1.994-.713-3.674-.713-4.284 0-7.75 3.255-7.75 7.79 0 4.41 3.36 7.708 7.645 7.708zm0-.798c1.365 0 2.436-.273 3.171-.693v-.546c-.903.504-1.827.777-3.17.777-3.529 0-6.343-2.772-6.343-6.447 0-3.885 2.899-6.636 6.49-6.636 1.428 0 2.415.357 3.003.714v-.61c-.547-.251-1.512-.545-3.003-.545-3.843 0-6.993 2.982-6.993 7.077 0 3.927 3.045 6.909 6.846 6.909zm16.176.966h-9.24V.294h9.198v2.898H57.09v3.003h5.817v2.898H57.09v4.137h6.09v2.898zM54.424.756v14.91h8.274v-1.974h-6.09V8.63h5.817V6.657h-5.817V2.73h6.069V.756h-8.253zm.84.756V14.91h6.846v-.462h-6.342V7.854h5.985v-.462h-5.985V1.974h6.3v-.462h-6.804zm25.04 14.91c-4.494 0-8.379-3.423-8.379-8.253 0-4.557 3.801-8.17 8.38-8.17 4.577 0 8.378 3.57 8.378 8.233 0 4.662-3.8 8.19-8.379 8.19zm0-.462c4.305 0 7.896-3.318 7.896-7.75 0-4.43-3.59-7.748-7.896-7.748-4.305 0-7.896 3.318-7.896 7.749 0 4.43 3.675 7.749 7.896 7.749zm0-.756c3.864 0 7.056-3.045 7.056-6.993 0-3.948-3.192-6.993-7.056-6.993s-7.056 3.045-7.056 6.993c0 3.948 3.192 6.993 7.056 6.993zm0-.483c-3.528 0-6.51-2.73-6.51-6.51s2.835-6.51 6.51-6.51 6.51 2.73 6.51 6.51-2.982 6.51-6.51 6.51zm0-.756c-3.192 0-5.67-2.436-5.67-5.754 0-3.36 2.478-5.754 5.67-5.754 3.192 0 5.67 2.394 5.67 5.754 0 3.318-2.478 5.754-5.67 5.754zm0-.462c2.92 0 5.187-2.205 5.187-5.292 0-3.13-2.268-5.292-5.187-5.292-2.835 0-5.187 2.163-5.187 5.27 0 3.109 2.352 5.314 5.187 5.314zM94.3 16.128h-3.15V.294h8.569v2.898H94.3v3.045h5.123v2.898H94.3v6.993zM91.635.777v14.868h2.183V8.652h5.125V6.72h-5.124V2.709h5.418V.777h-7.603zm.84.714v13.587h.504V7.896h5.376v-.462h-5.376V1.953h5.648V1.49h-6.153zm18.223 14.637h-3.171L110.508.294h1.848l4.41 10.269 4.536-10.27h1.848l2.73 15.835h-3.192l-1.323-9.303-4.011 9.303h-1.239l-3.864-9.303-1.554 9.303zm.21-15.393l-2.772 14.93h2.163l1.827-10.205 4.221 10.164h.777l4.41-10.101 1.554 10.143h2.226L122.772.756h-1.197l-4.809 10.836L112.062.735h-1.155zm.609 1.07l-2.457 13.273h.504l2.184-12.18 4.872 11.36h.273l4.998-11.213 1.974 12.033h.504L122.163 1.89h-.231l-5.166 11.55-4.977-11.634h-.273zm19.564 14.323h-3.15V.294h3.15v15.834zM128.413.756v14.91h2.184V.756h-2.184zm.84.588v13.734h.504V1.344h-.504zm7.995 14.784h-3.129V.294h2.184l9.114 10.08-.021-10.08h3.129v15.834h-2.163l-9.156-10.206.042 10.206zM134.602.777v14.868h2.184V4.767l9.807 10.878h1.449V.777h-2.184v10.752L136.03.777h-1.428zm.84.945v13.356h.504V2.604l10.899 12.033h.357V1.344h-.504v12.39L135.799 1.722h-.357zm19.737 14.406h-3.612V.294h3.948c5.418 0 9.009 2.856 9.009 7.875 0 5.103-3.717 7.959-9.345 7.959zM152.05.756v14.91h3.171c5.292 0 8.82-2.625 8.82-7.497 0-4.767-3.402-7.413-8.421-7.413h-3.57zm.882.714v13.46h2.079c4.851 0 8.169-2.372 8.169-6.761 0-4.62-3.234-6.7-7.77-6.7h-2.478zm1.995 12.999h-1.491V1.932h2.037c4.263 0 7.203 1.827 7.203 6.237 0 4.2-3.171 6.3-7.749 6.3zm.294-.714h-.945V2.73h1.407c3.969 0 6.132 1.848 6.132 5.439 0 3.612-2.709 5.586-6.594 5.586zm-.462-10.563v10.1h.483c3.717 0 6.09-1.784 6.09-5.144 0-3.213-1.806-4.956-5.67-4.956h-.903zm13.05 13.209c-.966 0-1.806-.693-1.806-1.701s.84-1.722 1.806-1.722c.945 0 1.806.714 1.806 1.722s-.861 1.7-1.806 1.7zm0-.441c.693 0 1.323-.504 1.323-1.26 0-.693-.63-1.281-1.323-1.281-.756 0-1.323.588-1.323 1.28 0 .757.567 1.26 1.323 1.26zm0-.63a.65.65 0 00.63-.651.646.646 0 00-.63-.63.65.65 0 00-.651.63c0 .357.294.65.651.65z" fill="#D8AB4C"/></svg>