<svg width="222" height="31" viewBox="0 0 222 31" fill="none" xmlns="http://www.w3.org/2000/svg"><rect x=".483" y=".483" width="221.035" height="30.035" rx="15.017" fill="#D8AB4C" stroke="#D8AB4C" stroke-width=".965"/><path d="M35.022 21.874l-4.135-10.783h1.216l2.675 7.155c.122.297.23.594.325.892.108.297.203.58.284.851.08.257.148.5.202.73h.061l.223-.75c.095-.27.196-.554.304-.852.108-.297.21-.588.304-.871l2.676-7.155h1.236l-4.135 10.783h-1.236zm8.123-10.783v10.783H42.01V11.091h1.135zm-.568-3.993c.257 0 .453.08.588.243.135.148.203.358.203.628 0 .284-.068.507-.203.669-.135.149-.331.223-.588.223-.243 0-.432-.074-.567-.223-.136-.162-.203-.385-.203-.669 0-.27.067-.48.203-.628.135-.162.324-.243.567-.243zM53.33 19.016c0 .649-.163 1.203-.487 1.662-.324.46-.797.81-1.419 1.054-.621.23-1.378.345-2.27.345a8.804 8.804 0 01-1.986-.203 7.598 7.598 0 01-1.48-.486v-1.115a8.642 8.642 0 001.642.608 7.738 7.738 0 001.844.223c1.081 0 1.858-.176 2.331-.527.473-.365.71-.858.71-1.48 0-.405-.115-.736-.345-.993-.216-.27-.547-.507-.993-.71a12.579 12.579 0 00-1.622-.648c-.662-.23-1.25-.46-1.763-.69-.514-.243-.912-.547-1.196-.912-.284-.364-.426-.864-.426-1.5 0-.864.352-1.54 1.054-2.026.703-.487 1.642-.73 2.818-.73a8.413 8.413 0 013.344.669l-.405.952a6.498 6.498 0 00-.912-.324 6.769 6.769 0 00-2.088-.324c-.851 0-1.513.148-1.986.446-.473.297-.71.73-.71 1.297 0 .433.108.777.325 1.034.23.243.56.453.993.628.446.176.98.379 1.601.608.635.216 1.21.446 1.723.69.527.243.94.553 1.236.932.311.378.467.885.467 1.52zm3.684-7.925v10.783h-1.135V11.091h1.135zm-.567-3.993c.256 0 .452.08.587.243.136.148.203.358.203.628 0 .284-.067.507-.203.669-.135.149-.33.223-.587.223-.244 0-.433-.074-.568-.223-.135-.162-.203-.385-.203-.669 0-.27.068-.48.203-.628.135-.162.324-.243.568-.243zm7.021 14.006c.298 0 .581-.02.852-.061.27-.054.506-.115.71-.183v.933c-.204.081-.46.149-.771.203a5.321 5.321 0 01-.953.08c-.594 0-1.101-.107-1.52-.324-.419-.23-.743-.58-.973-1.054-.216-.473-.324-1.08-.324-1.824v-6.851h-1.581v-.649l1.58-.365.426-2.493h.73v2.575h3.324v.932h-3.324v6.81c0 .744.149 1.311.446 1.703.297.379.757.568 1.378.568zM76.21 10.888c.851 0 1.554.169 2.108.507.554.324 1 .77 1.338 1.337h.08l.163-1.641h.933v11.128c0 .945-.163 1.75-.487 2.412a3.398 3.398 0 01-1.52 1.56c-.676.365-1.561.548-2.656.548-.797 0-1.513-.068-2.148-.203a9.117 9.117 0 01-1.682-.527v-1.115c.337.162.709.311 1.114.446.406.135.838.237 1.298.304.472.068.966.102 1.48.102 1.188 0 2.06-.311 2.614-.933.568-.621.851-1.46.851-2.513v-.649-.851l.04-.831h-.06c-.31.689-.77 1.216-1.378 1.58-.608.352-1.352.528-2.23.528-1.392 0-2.48-.473-3.263-1.42-.784-.945-1.176-2.303-1.176-4.073 0-1.176.176-2.19.527-3.04.351-.852.865-1.508 1.54-1.967.69-.46 1.528-.69 2.514-.69zm.122.993c-.784 0-1.44.19-1.966.568-.514.364-.9.898-1.156 1.601-.257.69-.385 1.534-.385 2.534 0 1.473.29 2.594.872 3.364.58.77 1.412 1.156 2.493 1.156.689 0 1.256-.102 1.702-.304a2.629 2.629 0 001.054-.892c.27-.379.46-.824.568-1.338a7.467 7.467 0 00.182-1.682v-.71c0-.919-.108-1.696-.324-2.33-.216-.636-.574-1.122-1.074-1.46-.487-.338-1.142-.507-1.966-.507zm16.917 4.601c0 .838-.108 1.602-.324 2.29a4.904 4.904 0 01-.933 1.764 4.127 4.127 0 01-1.52 1.135c-.608.27-1.304.406-2.087.406-.744 0-1.413-.129-2.007-.385a4.415 4.415 0 01-1.5-1.136 5.135 5.135 0 01-.953-1.783c-.216-.69-.324-1.453-.324-2.29 0-1.176.19-2.176.568-3 .391-.838.952-1.48 1.682-1.926.743-.446 1.621-.67 2.635-.67 1.027 0 1.892.237 2.594.71.717.46 1.257 1.108 1.622 1.946.365.838.547 1.818.547 2.94zm-8.452 0c0 .92.128 1.73.385 2.433.257.689.655 1.223 1.196 1.601.54.378 1.216.568 2.027.568.838 0 1.527-.19 2.067-.568.54-.392.94-.932 1.196-1.622.257-.702.385-1.506.385-2.412 0-.905-.121-1.702-.365-2.391-.243-.69-.628-1.23-1.155-1.622-.527-.392-1.216-.588-2.067-.588-1.23 0-2.149.405-2.757 1.216-.608.811-.912 1.94-.912 3.385zm12.381 5.392h-1.155V6.469h1.155v15.405zm7.265.203c-1.445 0-2.56-.46-3.344-1.379-.77-.932-1.155-2.297-1.155-4.094 0-1.865.405-3.284 1.216-4.257.824-.973 1.952-1.46 3.385-1.46.608 0 1.135.095 1.581.285.446.175.824.419 1.135.73.324.31.574.662.75 1.053h.081a37.656 37.656 0 00-.061-1.054c-.013-.392-.02-.743-.02-1.054V6.47h1.155v15.405h-.932l-.162-1.885h-.061c-.189.378-.439.73-.75 1.054-.311.31-.696.56-1.155.75-.46.19-1.014.284-1.663.284zm.142-.994c1.257 0 2.142-.378 2.656-1.135.527-.756.79-1.85.79-3.283v-.183c0-1.486-.263-2.621-.79-3.405-.514-.797-1.372-1.196-2.575-1.196-1.162 0-2.04.412-2.635 1.237-.594.81-.891 1.98-.891 3.506 0 1.46.283 2.568.851 3.324.567.757 1.432 1.136 2.594 1.136zm9.094-9.668c0 .27-.007.534-.02.79l-.041.77h.081c.189-.405.453-.763.791-1.074a3.65 3.65 0 011.216-.73 4.81 4.81 0 011.642-.263c.824 0 1.52.142 2.087.426.568.27.994.696 1.277 1.277.298.567.446 1.31.446 2.23v7.033h-1.135v-6.973c0-1.04-.236-1.804-.709-2.29-.473-.487-1.169-.73-2.088-.73-.784 0-1.439.155-1.966.466-.527.298-.926.757-1.196 1.379-.257.608-.385 1.364-.385 2.27v5.878h-1.135V6.469h1.135v4.946zm19.25-.324v10.783h-.952l-.162-1.845h-.061c-.189.392-.46.744-.811 1.055a3.65 3.65 0 01-1.216.73c-.473.175-1.02.263-1.642.263-.838 0-1.54-.142-2.108-.426a2.898 2.898 0 01-1.257-1.317c-.283-.581-.425-1.305-.425-2.17v-7.073h1.155v6.972c0 1.027.23 1.79.689 2.29.473.487 1.162.73 2.068.73.797 0 1.459-.148 1.986-.445.527-.311.919-.77 1.176-1.379.27-.608.405-1.365.405-2.27v-5.898h1.155zm4.535-.365c0 .392-.006.81-.02 1.256-.013.433-.034.791-.061 1.075h.081c.271-.622.71-1.135 1.318-1.54.621-.42 1.405-.63 2.351-.63 1.378 0 2.453.474 3.223 1.42.784.932 1.176 2.317 1.176 4.155 0 1.135-.176 2.122-.527 2.96-.338.837-.852 1.493-1.541 1.966-.676.459-1.507.689-2.493.689-.905 0-1.649-.19-2.23-.568-.567-.378-.986-.838-1.256-1.378h-.102l-.223 1.743h-.851V6.469h1.155v4.257zm3.507 1.155c-.824 0-1.5.176-2.027.527-.514.351-.892.865-1.135 1.54-.23.676-.345 1.514-.345 2.514v.142c0 1.46.257 2.574.771 3.344.527.757 1.391 1.136 2.594 1.136 1.162 0 2.034-.4 2.615-1.196.594-.798.892-1.94.892-3.426 0-1.527-.277-2.669-.831-3.425-.554-.77-1.399-1.156-2.534-1.156zm7.148 9.223c0-.338.074-.588.223-.75.148-.162.358-.243.628-.243.297 0 .52.08.669.243.162.162.243.412.243.75 0 .324-.081.574-.243.75-.149.162-.372.243-.669.243-.27 0-.48-.081-.628-.243-.149-.176-.223-.426-.223-.75zm9.286.973c-1.054 0-1.953-.217-2.696-.649-.73-.446-1.29-1.081-1.682-1.905-.379-.825-.568-1.818-.568-2.98 0-1.216.216-2.243.649-3.08.446-.839 1.054-1.474 1.824-1.906.77-.446 1.676-.67 2.716-.67.514 0 .993.055 1.439.163.46.095.865.223 1.217.385l-.305.973a6.233 6.233 0 00-1.175-.344 5.437 5.437 0 00-1.196-.142c-.865 0-1.595.189-2.189.567-.581.365-1.027.892-1.338 1.581-.297.69-.446 1.514-.446 2.473 0 .892.128 1.683.385 2.372.27.675.683 1.202 1.237 1.58.554.38 1.263.568 2.128.568.527 0 1.02-.054 1.48-.162.473-.108.905-.25 1.297-.426v1.054a7.596 7.596 0 01-1.216.386c-.46.108-.98.162-1.561.162zm14.18-5.595c0 .838-.108 1.602-.324 2.29a4.922 4.922 0 01-.932 1.764 4.136 4.136 0 01-1.521 1.135c-.608.27-1.304.406-2.087.406-.744 0-1.413-.129-2.007-.385a4.417 4.417 0 01-1.5-1.136 5.13 5.13 0 01-.953-1.783c-.216-.69-.324-1.453-.324-2.29 0-1.176.189-2.176.568-3 .391-.838.952-1.48 1.682-1.926.743-.446 1.621-.67 2.635-.67 1.027 0 1.892.237 2.594.71.717.46 1.257 1.108 1.622 1.946.365.838.547 1.818.547 2.94zm-8.452 0c0 .92.128 1.73.385 2.433.257.689.655 1.223 1.196 1.601.54.378 1.216.568 2.027.568.838 0 1.527-.19 2.067-.568.541-.392.939-.932 1.196-1.622.257-.702.385-1.506.385-2.412 0-.905-.121-1.702-.364-2.391-.244-.69-.629-1.23-1.156-1.622-.527-.392-1.216-.588-2.067-.588-1.23 0-2.149.405-2.757 1.216-.608.811-.912 1.94-.912 3.385zm22.476-5.594c1.081 0 1.918.304 2.513.912.608.608.912 1.568.912 2.878v7.196h-1.155v-7.155c0-.96-.216-1.669-.649-2.128-.432-.473-1.02-.71-1.763-.71-1.041 0-1.838.304-2.392.912-.541.595-.811 1.52-.811 2.777v6.304h-1.155v-7.155c0-.649-.102-1.182-.304-1.601-.189-.42-.466-.73-.831-.933-.352-.203-.784-.304-1.298-.304-.675 0-1.25.142-1.722.426-.473.284-.838.71-1.095 1.277-.243.567-.365 1.29-.365 2.169v6.121h-1.135V11.091h.912l.183 1.723h.06a3.7 3.7 0 01.73-.973 3.708 3.708 0 011.115-.69c.432-.175.926-.263 1.48-.263.797 0 1.466.169 2.006.507.541.338.919.844 1.135 1.52h.081a3.375 3.375 0 011.379-1.5c.621-.351 1.344-.527 2.169-.527z" fill="#0B0103"/></svg>