<svg width="105" height="49" viewBox="0 0 105 49" fill="none" xmlns="http://www.w3.org/2000/svg"><path d="M24.487 8.167c-9.027 0-16.347 7.312-16.347 16.337 0 9.017 7.32 16.33 16.347 16.33 9.027 0 16.347-7.313 16.347-16.33 0-9.025-7.32-16.337-16.347-16.337zm0 31.262c-8.256 0-14.94-6.685-14.94-14.925-.001-8.247 6.684-14.932 14.94-14.932 8.248 0 14.94 6.685 14.94 14.925 0 8.247-6.692 14.932-14.94 14.932zm0-27.668c-7.045 0-12.75 5.705-12.75 12.736 0 7.031 5.705 12.736 12.75 12.736s12.755-5.705 12.755-12.736c-.006-7.031-5.717-12.736-12.755-12.736zm0 24.074c-6.26 0-11.343-5.078-11.343-11.331 0-6.26 5.083-11.332 11.343-11.332 6.266 0 11.342 5.071 11.342 11.332 0 6.253-5.076 11.33-11.342 11.33zm0-20.48c-5.057 0-9.158 4.097-9.158 9.149 0 5.044 4.101 9.142 9.158 9.142 5.056 0 9.151-4.091 9.151-9.142a9.15 9.15 0 00-9.151-9.149zm-.007 16.886c-4.278 0-7.745-3.464-7.745-7.737a7.742 7.742 0 017.745-7.744c4.272 0 7.752 3.463 7.752 7.744 0 4.273-3.474 7.737-7.752 7.737zM70.623 14.701a2.56 2.56 0 001.884-2.47 2.66 2.66 0 00-2.662-2.66h-3.99v8.156h1.432v-2.843h1.799l2.008 2.843h1.694L70.623 14.7zm-3.336-1.117v-2.706h2.558c.713 0 1.288.608 1.288 1.353s-.575 1.353-1.288 1.353h-2.558zM74.07 9.571h1.433v6.855h4.121v1.307H74.07V9.571zM84.098 9.571h-3.172v8.156h3.172a4.08 4.08 0 004.082-4.078 4.08 4.08 0 00-4.082-4.078zm0 6.855h-1.74v-5.548h1.74c1.531 0 2.709 1.242 2.709 2.77 0 1.53-1.178 2.778-2.709 2.778zM64.422 20.419h1.432v6.855h4.121v1.307h-5.553v-8.162zM58.895 20.282a4.222 4.222 0 100 8.443 4.222 4.222 0 100-8.443zm0 7.064a2.846 2.846 0 01-2.846-2.842 2.846 2.846 0 015.691 0 2.838 2.838 0 01-2.845 2.842zM60.314 9.435a4.222 4.222 0 100 8.442 4.222 4.222 0 100-8.442zm0 7.063a2.846 2.846 0 01-2.846-2.842 2.846 2.846 0 015.691 0 2.838 2.838 0 01-2.845 2.842zM57.475 31.129a4.222 4.222 0 100 8.443 4.222 4.222 0 100-8.443zm0 7.057a2.846 2.846 0 01-2.846-2.842 2.846 2.846 0 015.691 0 2.842 2.842 0 01-2.845 2.842zM52.562 38.33a4.208 4.208 0 01-2.99 1.236 4.222 4.222 0 110-8.443c1.165 0 2.224.47 2.983 1.235l-.974.974a2.839 2.839 0 00-2.015-.83 2.846 2.846 0 00-2.846 2.842 2.846 2.846 0 004.86 2.007l.982.98zM77.053 31.267h1.432v8.155h-1.223l-4.33-5.77v5.77h-1.433v-8.155h1.348l4.2 5.606v-5.606h.006zM91.307 31.267h1.432v6.854h4.121v1.307h-5.553v-8.161zM89.783 31.267v8.155h-1.432v-8.155h1.432zM87.016 38.33a4.208 4.208 0 01-2.99 1.236 4.222 4.222 0 110-8.443c1.165 0 2.225.47 2.983 1.235l-.974.974a2.839 2.839 0 00-2.015-.83 2.846 2.846 0 00-2.846 2.842 2.846 2.846 0 004.86 2.007l.982.98zM74.672 20.419h-3.173v8.155h3.173a4.08 4.08 0 004.081-4.077 4.072 4.072 0 00-4.081-4.078zm0 6.855h-1.74v-5.548h1.74c1.53 0 2.708 1.242 2.708 2.77.006 1.536-1.171 2.778-2.708 2.778zM69.975 31.267h-1.432v4.861a2.06 2.06 0 01-2.06 2.059 2.06 2.06 0 01-2.061-2.059v-4.861h-1.433v4.81a3.49 3.49 0 003.493 3.489 3.49 3.49 0 003.493-3.49v-4.81zM53.281 24.053v3.195c-.824.921-2.132 1.496-3.578 1.496-2.472 0-4.356-1.92-4.356-4.253s1.956-4.19 4.29-4.19c1.165 0 2.388.471 3.147 1.236l-.974.974c-.517-.517-1.394-.83-2.179-.83-1.57 0-2.91 1.241-2.91 2.81 0 1.568 1.314 2.875 2.976 2.875 1 0 1.766-.294 2.224-.72v-1.352h-2.087v-1.248h3.447v.007zM48.218 17.733h-1.236l-2.656-8.162h1.478l1.793 5.796 1.864-5.796h1.217l1.864 5.796 1.792-5.796h1.472l-2.649 8.162h-1.236l-1.852-5.64-1.85 5.64z" fill="#D8AB4C"/></svg>