<svg width="157" height="17" viewBox="0 0 157 17" fill="none" xmlns="http://www.w3.org/2000/svg"><path d="M8.127 16.422C3.549 16.422 0 12.852 0 8.295 0 3.549 3.57 0 8.232 0c1.743 0 3.234.42 4.158.86v3.466c-1.386-.924-2.751-1.428-4.158-1.428-2.898 0-5.04 2.268-5.04 5.355 0 2.96 2.1 5.25 5.04 5.25 1.596 0 3.066-.567 4.2-1.596v3.465c-1.134.65-2.541 1.05-4.305 1.05zm0-.462c1.554 0 2.814-.294 3.822-.903v-2.268c-.63.504-1.974 1.176-3.717 1.176-3.192 0-5.523-2.436-5.523-5.712 0-3.381 2.415-5.838 5.502-5.838 1.533 0 2.877.546 3.696 1.07v-2.31C11.172.799 9.912.463 8.232.463c-4.284 0-7.75 3.255-7.75 7.79 0 4.41 3.36 7.708 7.645 7.708zm0-.798c1.365 0 2.436-.273 3.17-.693v-.546c-.902.504-1.826.777-3.17.777-3.528 0-6.342-2.772-6.342-6.447 0-3.885 2.898-6.636 6.489-6.636 1.428 0 2.415.357 3.003.714v-.61c-.546-.251-1.512-.545-3.003-.545-3.843 0-6.993 2.982-6.993 7.077 0 3.927 3.045 6.909 6.846 6.909zm10.085.966h-3.15V.294h3.15v5.985h6.048V.294h3.129v15.834h-3.13V9.177h-6.047v6.95zM15.545.777v14.868h2.184V8.694h7.014v6.95h2.163V.778h-2.163v5.985h-7.014V.777h-2.184zm.84.567v13.734h.504V8h8.694v7.077h.504V1.344h-.504v6.153h-8.694V1.344h-.504zM38.25 16.422c-4.494 0-8.38-3.423-8.38-8.253 0-4.557 3.802-8.17 8.38-8.17 4.578 0 8.379 3.57 8.379 8.233 0 4.662-3.801 8.19-8.38 8.19zm0-.462c4.305 0 7.896-3.318 7.896-7.75 0-4.43-3.591-7.748-7.896-7.748S30.355 3.78 30.355 8.21c0 4.43 3.675 7.749 7.896 7.749zm0-.756c3.864 0 7.056-3.045 7.056-6.993 0-3.948-3.192-6.993-7.056-6.993s-7.056 3.045-7.056 6.993c0 3.948 3.192 6.993 7.056 6.993zm0-.483c-3.528 0-6.51-2.73-6.51-6.51s2.835-6.51 6.51-6.51 6.51 2.73 6.51 6.51-2.982 6.51-6.51 6.51zm0-.756c-3.192 0-5.67-2.436-5.67-5.754 0-3.36 2.478-5.754 5.67-5.754 3.192 0 5.67 2.394 5.67 5.754 0 3.318-2.478 5.754-5.67 5.754zm0-.462c2.919 0 5.187-2.205 5.187-5.292 0-3.13-2.268-5.292-5.187-5.292-2.835 0-5.187 2.163-5.187 5.27 0 3.109 2.352 5.314 5.187 5.314zm18.658 2.919c-4.494 0-8.38-3.423-8.38-8.253 0-4.557 3.802-8.17 8.38-8.17 4.578 0 8.379 3.57 8.379 8.233 0 4.662-3.801 8.19-8.38 8.19zm0-.462c4.305 0 7.896-3.318 7.896-7.75 0-4.43-3.591-7.748-7.896-7.748S49.013 3.78 49.013 8.21c0 4.43 3.675 7.749 7.896 7.749zm0-.756c3.864 0 7.056-3.045 7.056-6.993 0-3.948-3.192-6.993-7.056-6.993s-7.056 3.045-7.056 6.993c0 3.948 3.192 6.993 7.056 6.993zm0-.483c-3.528 0-6.51-2.73-6.51-6.51s2.835-6.51 6.51-6.51 6.51 2.73 6.51 6.51-2.982 6.51-6.51 6.51zm0-.756c-3.192 0-5.67-2.436-5.67-5.754 0-3.36 2.478-5.754 5.67-5.754 3.192 0 5.67 2.394 5.67 5.754 0 3.318-2.478 5.754-5.67 5.754zm0-.462c2.919 0 5.187-2.205 5.187-5.292 0-3.13-2.268-5.292-5.187-5.292-2.835 0-5.187 2.163-5.187 5.27 0 3.109 2.352 5.314 5.187 5.314zm15.067 2.919c-2.478 0-4.179-1.113-5.313-3.297l2.205-1.617c.735 1.323 1.827 2.184 3.108 2.184 1.197 0 1.911-.798 1.911-1.953s-.546-1.87-2.54-2.73c-2.227-.945-3.907-2.184-3.907-4.641C67.44 1.89 69.435 0 72.186 0c2.163 0 3.717 1.092 4.578 2.352l-2.016 1.91c-.65-.902-1.47-1.532-2.562-1.532-1.008 0-1.554.693-1.554 1.554 0 .86.588 1.449 2.604 2.31 2.583 1.092 3.843 2.52 3.843 5.103 0 2.856-2.205 4.725-5.103 4.725zm0-.462c2.667 0 4.62-1.638 4.62-4.242 0-2.352-1.092-3.654-3.57-4.725-1.995-.861-2.877-1.575-2.877-2.667 0-1.24.903-2.058 2.037-2.058 1.281 0 2.121.714 2.646 1.344l1.323-1.26c-.65-.903-1.974-1.89-3.969-1.89-2.394 0-4.263 1.49-4.263 3.864 0 2.247 1.533 3.318 3.654 4.242 2.1.903 2.793 1.785 2.793 3.15 0 1.323-.924 2.436-2.394 2.436-1.512 0-2.667-1.008-3.255-1.953l-1.428 1.029c.777 1.554 2.373 2.73 4.683 2.73zm0-.693c2.184 0 3.738-1.386 3.738-3.55 0-2.057-1.05-3.17-3.339-4.2-1.932-.881-3.108-1.532-3.108-3.191 0-1.764 1.302-2.772 2.92-2.772 1.301 0 2.141.546 2.75 1.197l.357-.336c-.609-.693-1.638-1.323-3.108-1.323-1.91 0-3.423 1.323-3.423 3.234 0 1.89 1.344 2.73 3.234 3.57 2.352 1.029 3.213 1.953 3.213 3.822s-1.26 3.087-3.234 3.087c-1.7 0-2.814-.84-3.402-1.68l-.399.294c.651.924 1.87 1.848 3.801 1.848zm16.602.86h-9.24V.295h9.198v2.898h-6.048v3.003h5.817v2.898h-5.817v4.137h6.09v2.898zM79.821.757v14.91h8.274v-1.974h-6.09V8.63h5.817V6.657h-5.817V2.73h6.069V.756h-8.253zm.84.756V14.91h6.846v-.462h-6.342V7.854h5.985v-.462h-5.985V1.974h6.3v-.462h-6.804zm21.45 14.91c-2.478 0-4.18-1.113-5.313-3.297l2.205-1.617c.735 1.323 1.827 2.184 3.108 2.184 1.197 0 1.911-.798 1.911-1.953s-.546-1.87-2.541-2.73c-2.226-.945-3.906-2.184-3.906-4.641C97.575 1.89 99.57 0 102.32 0c2.163 0 3.717 1.092 4.578 2.352l-2.016 1.91c-.651-.902-1.47-1.532-2.562-1.532-1.008 0-1.554.693-1.554 1.554 0 .86.588 1.449 2.604 2.31 2.583 1.092 3.843 2.52 3.843 5.103 0 2.856-2.205 4.725-5.103 4.725zm0-.462c2.667 0 4.62-1.638 4.62-4.242 0-2.352-1.092-3.654-3.57-4.725-1.995-.861-2.877-1.575-2.877-2.667 0-1.24.903-2.058 2.037-2.058 1.281 0 2.121.714 2.646 1.344l1.323-1.26c-.651-.903-1.974-1.89-3.969-1.89-2.394 0-4.263 1.49-4.263 3.864 0 2.247 1.533 3.318 3.654 4.242 2.1.903 2.793 1.785 2.793 3.15 0 1.323-.924 2.436-2.394 2.436-1.512 0-2.667-1.008-3.255-1.953l-1.428 1.029c.777 1.554 2.373 2.73 4.683 2.73zm0-.693c2.184 0 3.738-1.386 3.738-3.55 0-2.057-1.05-3.17-3.339-4.2-1.932-.881-3.108-1.532-3.108-3.191 0-1.764 1.302-2.772 2.919-2.772 1.302 0 2.142.546 2.751 1.197l.357-.336c-.609-.693-1.638-1.323-3.108-1.323-1.911 0-3.423 1.323-3.423 3.234 0 1.89 1.344 2.73 3.234 3.57 2.352 1.029 3.213 1.953 3.213 3.822s-1.26 3.087-3.234 3.087c-1.701 0-2.814-.84-3.402-1.68l-.4.294c.652.924 1.87 1.848 3.802 1.848zm15.174 1.155c-4.494 0-8.379-3.423-8.379-8.253 0-4.557 3.801-8.17 8.379-8.17 4.578 0 8.379 3.57 8.379 8.233 0 4.662-3.801 8.19-8.379 8.19zm0-.462c4.305 0 7.896-3.318 7.896-7.75 0-4.43-3.591-7.748-7.896-7.748s-7.896 3.318-7.896 7.749c0 4.43 3.675 7.749 7.896 7.749zm0-.756c3.864 0 7.056-3.045 7.056-6.993 0-3.948-3.192-6.993-7.056-6.993s-7.056 3.045-7.056 6.993c0 3.948 3.192 6.993 7.056 6.993zm0-.483c-3.528 0-6.51-2.73-6.51-6.51s2.835-6.51 6.51-6.51 6.51 2.73 6.51 6.51-2.982 6.51-6.51 6.51zm0-.756c-3.192 0-5.67-2.436-5.67-5.754 0-3.36 2.478-5.754 5.67-5.754 3.192 0 5.67 2.394 5.67 5.754 0 3.318-2.478 5.754-5.67 5.754zm0-.462c2.919 0 5.187-2.205 5.187-5.292 0-3.13-2.268-5.292-5.187-5.292-2.835 0-5.187 2.163-5.187 5.27 0 3.109 2.352 5.314 5.187 5.314zm12.374 2.625h-3.171L129.47.294h1.848l4.41 10.269 4.536-10.27h1.848l2.73 15.835h-3.192l-1.323-9.303-4.011 9.303h-1.239l-3.864-9.303-1.554 9.303zm.21-15.393l-2.772 14.93h2.163l1.827-10.205 4.221 10.164h.777l4.41-10.101 1.554 10.143h2.226L141.734.756h-1.197l-4.809 10.836L131.024.735h-1.155zm.609 1.07l-2.457 13.273h.504l2.184-12.18 4.872 11.36h.273l4.998-11.213 1.974 12.033h.504L141.125 1.89h-.231l-5.166 11.55-4.977-11.634h-.273zm25.654 14.323h-9.24V.294h9.198v2.898h-6.048v3.003h5.817v2.898h-5.817v4.137h6.09v2.898zM147.375.756v14.91h8.274v-1.974h-6.09V8.63h5.817V6.657h-5.817V2.73h6.069V.756h-8.253zm.84.756V14.91h6.846v-.462h-6.342V7.854h5.985v-.462h-5.985V1.974h6.3v-.462h-6.804z" fill="#D8AB4C"/></svg>